Patient4_TMGait_0pt6_02_left_29_EMG.mot
version=1
nRows=37
nColumns=33
inDegrees=no
endheader
time	1LAddLong	2LGlutMax	3LGlutMed	4LIliopsoas	5LSemiMemb	6LBicFemLong	7LRecFem	8LVastMed	9LVastLat	10LGasMed	11LTibAnt	12lTibPost	13LPeroneusLong	14LSol	15LExtDigLong	16LFlexDigLong	17RAddLong	18RGlutMax	19RGlutMed	20RIliopsoas	21RSemiMemb	22RBicFemLong	23RRecFem	24RVastMed	25RVastLat	26RGasMed	27RTibAnt	28RTibPost	29RPeroneusLong	30RSol	31RExtDigLong	32RFlexDigLong
36.728	0.032043	0.18219	-0.091553	0.02655	0.033112	-0.1416	0.063477	-0.000305	0.080109	-0.026398	-0.097198	0.022278	0.14984	0.091095	-0.14893	0.030975	-0.023956	0.2121	0.16464	0.079498	-0.022736	-0.11429	-0.5011	0.62668	0.39459	0.037079	0.058594	-0.011902	2.0389	0.039978	0.00061	-0.000458
36.729	0.036469	0.23377	0.015259	0.006409	0.021362	-0.11078	0.068512	-0.008392	0.082703	-0.015411	-0.06546	0.013275	0.10498	-0.011444	-0.082855	0.0177	-0.002289	0.22125	0.28824	0.034637	-0.032654	-0.17334	-0.28381	0.47348	-0.13275	0.014648	0.35156	-0.008087	-0.71915	-0.013123	0.001068	-0.003204
36.73	0.028229	0.22644	0.005035	-0.013275	0.006104	-0.02121	0.05249	-0.007629	0.067749	0.007629	0.10773	0.011292	0.057373	-0.13123	-0.16571	0.016327	0.009155	0.34347	0.10986	0.10864	-0.039673	-0.13367	0.19501	0.27115	-0.51941	0.024872	0.44495	-0.016785	-0.29037	-0.10742	-0.006256	0
36.731	0.028992	0.2034	-0.028534	-0.016937	-0.007324	-0.000763	0.059967	-0.006256	0.072632	0.00885	0.040283	0.011749	0.083313	-0.20538	-0.16266	0.015717	-0.015564	0.21057	-0.068207	0.034943	-0.02655	-0.19196	0.20554	0.039215	-0.31265	0.062561	0.22079	-0.018005	-1.2277	-0.26962	-0.001221	0.010376
36.732	0.011749	0.20798	0.026855	-0.010071	-0.022278	-0.012512	0.043488	-0.001526	0.07843	-0.00473	0.018311	0.012665	0.093079	-0.16922	-0.088806	0.016174	-0.011139	0.31906	0.65613	-0.13382	-0.02594	-0.28778	0.10117	-0.094452	-0.099792	0.074768	-0.33981	-0.020294	1.6974	-0.32105	-0.004272	0.00946
36.733	0.008087	0.15732	0.00824	0.001831	-0.007324	-0.046539	0.033264	0.001984	0.082092	-0.006104	0.018005	0.008545	0.11566	-0.16846	0.024872	0.028381	0.006866	0.29663	0.43243	-0.11169	-0.05188	-0.28992	0.080566	-0.11978	-0.061493	0.046234	-0.45395	0.070953	-0.50629	-0.1831	-0.005341	0.011292
36.734	0.011444	0.15411	-0.025482	0.004578	-0.001526	-0.052185	0.04837	0.001373	0.075073	0.014191	-0.12589	0.008698	0.11032	-0.14282	0.1532	0.026245	0.009918	0.13306	-0.019531	-0.1915	-0.06012	-0.30914	0.001373	-0.17014	-0.009613	0.033417	-0.33752	0.027618	-2.459	-0.2887	-0.003662	-0.002289
36.735	0.017242	0.1062	-0.070496	0.011749	0.009155	-0.050507	0.06424	0.006561	0.071869	0.026398	-0.26764	0.006561	0.065918	-0.11765	0.13382	0.024719	0.008545	-0.03952	-0.26016	-0.2214	-0.081177	-0.27023	0.13382	-0.10574	0.047302	0.016479	-0.14572	-0.032654	-0.66635	-0.014343	-0.003662	0.002899
36.736	0.016174	0.11963	-0.079041	0.003967	0.006256	-0.033417	0.071564	0.007477	0.07019	0.008545	-0.16342	0.010376	0.06073	-0.11185	0.095215	0.022888	0.013428	-0.000153	-0.98572	-0.21561	-0.11032	-0.36438	0.19592	0.007019	0.030212	-0.003052	-0.22949	-0.020142	2.5116	0.056	-0.002747	-0.007019
36.737	0.011444	0.093689	-0.075226	0.01236	-0.004883	-0.029449	0.067596	0.005493	0.075531	-0.007019	-0.082092	0.009155	0.054169	-0.047302	0.10666	0.020447	-0.002441	0.029755	-0.78934	-0.072479	-0.12573	-0.26047	0.14938	-0.01358	0.00351	0.016632	-0.19257	-0.015869	1.4554	-0.086517	-0.008087	-0.005035
36.738	0.007629	0.09903	-0.087585	0.010223	-0.011597	-0.054626	0.058899	0.007629	0.076447	-0.014496	-0.059814	0.005035	0.032501	-0.012665	0.082245	0.018158	-0.003357	0.086365	-0.52917	0.088806	-0.12787	-0.075836	0.14862	-0.16602	-0.007782	0.01709	0.25681	-0.02182	-0.003357	0.094452	-0.003815	-0.008698
36.739	0.006866	0.053711	-0.061646	0.004578	-0.028992	-0.062103	0.05249	0.003815	0.070496	-0.005035	-0.032043	0.009003	0.024109	-0.013428	0.15915	0.03418	0.013275	0.19363	0.33569	0.032043	-0.1268	0.008698	0.1329	-0.19165	-0.020599	0.021973	0.25604	-0.019226	-0.14542	0.30746	-0.003204	-0.011902
36.74	0.000305	0.048523	-0.08667	0.002899	-0.024261	-0.055237	0.029602	0.007782	0.067902	-0.011749	0.027924	0.003052	0.017395	-0.042419	-0.005951	0.008392	0.013885	0.19272	-0.014954	-0.005798	-0.085754	0.22659	0.057678	-0.20783	-0.01297	0.012512	0.13062	-0.018158	0.2829	0.33829	-0.001526	-0.011749
36.741	0.003967	0.049133	-0.092468	0.010681	0.007629	-0.079041	0.03067	0.001526	0.071564	-0.010529	0.09613	0.00351	0.024261	0.008392	0.077209	0.014038	0.011292	0.2385	0.35523	-0.0383	-0.04715	0.51407	0.091248	-0.21362	0.024567	0.007935	0.20233	-0.027161	0.85312	0.23102	-0.00473	-0.005493
36.742	-0.004883	0.019073	-0.078888	0.003357	0.014496	-0.0383	0.015717	0.000763	0.067291	-0.032043	0.10468	0.006561	0.048218	0.061951	0.14847	0.00946	-0.003052	0.34225	0.16647	0.021362	-0.040436	0.49744	0.10544	-0.16373	-0.010071	-0.09491	0.11643	-0.013275	-0.2182	0.35111	-0.002441	-0.004425
36.743	0.011749	-0.00473	-0.081482	0.002441	-0.00412	-0.018005	0.001831	0.006409	0.071716	-0.031433	-0.002747	0.00946	0.099792	0.024567	0.074463	0.016022	0.002747	0.26901	-0.30945	0.098114	0.003662	0.42313	0.067596	-0.12192	-0.04364	-0.16434	-0.022583	0.023346	-0.20004	0.085449	-0.00412	-0.008545
36.744	0.002899	-0.059662	-0.075226	0.023499	0.011444	0.000305	0.024719	0.014954	0.063477	-0.029755	-0.028687	0.00473	0.075836	-0.000153	0.07309	0.008087	0.010529	0.1741	-0.10803	0.12436	0.02533	0.34332	0.018463	-0.094757	-0.016022	-0.093689	0.11276	0.014191	-0.60608	0.040588	-0.002899	-0.004883
36.745	-0.002289	-0.060425	-0.06546	-0.007019	0.026398	-0.022125	0.014801	0.006866	0.07309	-0.003052	0.013885	0.002289	0.074463	-0.0354	0.018616	0.005798	0.022583	0.18539	0.014343	0.13275	0.010834	0.028534	0.10315	-0.12711	0.002899	-0.042725	-0.020752	-0.045776	-0.64468	0.14252	-0.003357	-0.011292
36.746	0.004425	-0.042114	-0.11429	0.004578	-0.00824	-0.023041	-0.004883	0.004272	0.070343	-0.022736	0.02243	0.010681	0.061798	-0.020142	-0.068512	0.005341	0.021057	0.16541	0.14221	0.11383	0.024109	-0.32303	0.11505	-0.080414	0.005646	-0.038452	-0.19348	-0.083618	-1.1067	0.00473	-0.000763	-0.001526
36.747	-0.000763	-0.053558	-0.19028	0.000458	-0.024719	-0.026093	0	0.006104	0.070496	-0.014954	0.054169	0.007782	0.023346	-0.024109	-0.085144	0.005188	0.00412	0.23468	0.071106	0.12161	0.048676	-0.42923	0.12161	-0.041656	0.034943	0.0383	0.000763	-0.015564	-1.765	0.075531	-0.002747	-0.00061
36.748	-0.000153	-0.048676	-0.22461	0.000916	-0.026093	-0.045776	-0.000763	0.004578	0.066986	-0.010681	0.036926	0.005035	0.001373	-0.017548	-0.077972	-0.005493	-0.011444	0.17761	0.49149	0.073547	0.022278	-0.43915	0.079498	-0.006256	0.035553	0.08194	0.14099	0.11887	-0.72174	-0.011902	-0.005188	-0.005951
36.749	-0.003815	-0.07019	-0.19241	0.009766	-0.026855	-0.034943	0.002289	0.005493	0.066376	0.014648	0.029907	0.01297	0.011597	-0.035858	-0.11215	0.005035	-0.013733	0.12421	0.29068	0.074463	-0.030212	-0.48004	0.16907	-0.040283	0.048065	-0.020905	0.057983	-0.013123	0.32028	0.08728	-0.002899	-0.010681
36.75	0.002289	-0.081787	-0.019379	0.009613	0.001831	-0.066833	-0.021515	0.005646	0.06958	0.014191	0.023346	0.003357	0.032501	-0.047455	-0.06073	-0.002136	-0.000153	0.067596	0.092621	-0.035248	-0.057831	-0.38498	0.24719	-0.13458	-0.001984	-0.08255	0.1297	-0.079041	0.62027	0.072327	-0.001984	0.007172
36.751	0.02243	-0.11398	0.15213	0.001373	-0.06134	-0.079498	-0.04303	0.002441	0.067749	0.00351	0.028229	0.00946	0.024567	-0.00473	-0.011444	0.005188	0.00473	0.22797	0.14664	-0.10437	-0.05188	-0.18097	0.4306	-0.13779	-0.10269	0.033875	0.15808	0.021057	0.44495	0.036469	-0.002747	-0.001526
36.752	0.03418	-0.20981	0.096741	-0.00061	-0.077667	-0.0914	-0.036621	0.006256	0.066376	0.003662	0.030212	0.012512	0.010071	0.000916	0.020752	-0.000153	-0.007019	0.17639	0.57907	-0.23453	-0.045624	-0.03479	0.37903	-0.038757	-0.16312	-0.081482	-0.2269	0.003052	0.96161	-0.043182	-0.003357	0.004425
36.753	-0.039673	-0.21561	0.14816	0.007324	0.009918	-0.07782	-0.045929	0.005646	0.072937	-0.002747	0.019226	0.002289	0.032959	0.019684	0.020905	0.00061	-0.014191	0.12314	0.47043	-0.17929	-0.006714	-0.02533	0.095215	-0.080719	-0.091553	-0.067749	-0.46845	-0.025787	1.787	-0.031586	-0.007324	0.001526
36.754	0.04364	-0.19577	0.20248	0.009308	-0.019226	-0.029602	-0.055542	0.007477	0.062561	-0.009155	-0.003662	0.009613	0.016174	0.011292	0.093079	-0.001526	-0.02594	0.12894	0.53238	-0.037231	0.036774	0.21927	-0.20035	0.12924	0.13351	-0.042419	-0.032654	0.02533	-1.2709	0.17532	-0.005798	-0.011139
36.755	0.031281	-0.16785	0.16327	0.004578	0.000458	-0.030975	-0.079193	0.006409	0.040894	-0.005341	-0.039368	0.007629	0.00824	0.016937	0.15182	0.000763	-0.007935	0.13611	0.15381	0.15121	-0.024109	0.31509	-0.27466	0.065308	0.23025	-0.00412	0.34698	0.087433	-1.1916	-0.082245	-0.002441	-0.012054
36.756	0.010376	-0.19119	0.11047	-0.004578	0.035706	0.021667	-0.0737	0.007324	0.003204	-0.014954	0.011139	0.012207	0.023956	0.027161	0.14023	0.001526	0.003815	0.069275	-0.20004	0.22385	-0.066071	0.052643	-0.23697	0.063477	0.20264	0.025177	0.49469	-0.002136	2.8661	-0.3447	-0.003662	-0.014343
36.757	-0.002594	-0.25101	0.067291	0.007935	-0.036926	0.009308	-0.082092	0.007782	0.011292	-0.023956	0.096741	0.006409	0.036163	0.033264	0.010071	0.001373	-0.010681	0.069275	-0.25696	0.14038	-0.06073	-0.038452	-0.28351	0.20294	0.2533	0.047607	0.36163	-0.034943	0.37735	-0.22522	-0.003357	-0.017395
36.758	-0.009308	-0.25833	0.011292	-0.002441	-0.050964	-0.00946	-0.076294	0.004578	0.020599	-0.015717	0.11688	0.009613	0.013733	0.027618	-0.021973	-0.000305	0.009308	-0.037231	-1.1986	0.062714	-0.045624	0.042572	0.020447	0.21164	0.12405	0.076599	0.042267	-0.0177	-0.37537	-0.17624	-0.003052	-0.007629
36.759	-0.010376	-0.27695	-0.079346	0.010071	-0.02594	-0.006866	-0.087738	-0.004578	0.041199	-0.011749	0.088654	0.009918	-0.010529	0.037384	-0.15228	-0.005951	0.006561	-0.15793	-1.6476	0.16693	-0.007019	0.17761	0.1445	0.1767	0.028381	0.068359	-0.12909	0.002136	0.026398	-0.10437	0.001221	-0.010986
36.76	0.002899	-0.3154	-0.12253	0.005646	-0.030975	0.01709	-0.0737	-0.006561	0.044556	-0.029907	-0.009155	0.011444	-0.002441	0.023651	-0.16357	0.007019	0.000458	-0.16403	-0.71457	0.24185	-0.001068	0.26718	0.19867	0.016785	0.11139	0.037537	-0.65247	-0.002441	-1.2802	-0.029297	0.005646	-0.007019
36.761	0.020294	-0.31906	-0.14084	-0.013123	0.049438	-0.007019	-0.086365	-0.009003	0.049133	-0.061646	0.008392	0.016022	-0.002899	0.041656	-0.045624	-0.00351	-0.007324	-0.085754	0.065765	0.20401	0.009918	0.30334	0.10529	-0.15381	0.084991	0.016174	-0.30533	-0.010986	-2.5217	-0.10132	-0.000763	-0.006866
36.762	0.031281	-0.3746	-0.14221	0.002899	0.058899	-0.077515	-0.093384	-0.000458	0.052795	-0.066833	0.095367	0.009766	-0.007172	0.080566	0.079498	0.002289	-0.014648	-0.085297	0.20309	0.099182	0.022888	0.29037	-0.054169	-0.24658	0.044556	0.016632	0.18249	-0.008545	1.2915	-0.16678	-0.00061	-0.008087
36.763	0.021515	-0.35614	-0.13229	0.005188	0.027008	-0.060425	-0.098724	-0.000458	0.061646	-0.0383	0.10315	0.008698	0.019226	0.07843	0.12817	-0.000153	-0.018158	-0.054626	-0.38559	-0.20721	0.011749	0.21774	-0.073853	-0.18631	0.076904	0.016479	0.59204	-0.013733	0.9314	-0.3035	-0.000763	-0.009003
36.764	0.02533	-0.37842	-0.1294	-0.016327	0.019073	-0.070343	-0.082397	0.002899	0.06546	-0.032349	-0.000458	0.005798	0.02655	0.043945	0.11414	0.001526	-0.02655	-0.16815	-0.30106	-0.27268	0.020599	0.12451	-0.12482	-0.10422	0.20142	0.0177	0.006561	-0.006104	0.41367	-0.38605	-0.004272	0.000916
